<?xml version="1.0" encoding="utf-8"?>
<!-- Generator: Adobe Illustrator 25.4.1, SVG Export Plug-In . SVG Version: 6.00 Build 0)  -->
<svg version="1.1" id="Layer_1" xmlns="http://www.w3.org/2000/svg" xmlns:xlink="http://www.w3.org/1999/xlink" x="0px" y="0px"
	 viewBox="0 0 1564 385" style="enable-background:new 0 0 1564 385;" xml:space="preserve">
<style type="text/css">
	.st0{fill:#FFFFFF;stroke:#818285;stroke-miterlimit:10;}
	.st1{fill:none;}
	.st2{fill:url(#XMLID_00000103958998237735736010000003184745495896537013_);}
	.st3{fill:url(#XMLID_00000178177825157010995010000001898044808210118796_);}
	.st4{fill:url(#XMLID_00000178914613804308241750000006555336395783709344_);}
	.st5{fill:#167EC2;}
	.st6{fill:#010101;}
	.st7{fill:url(#XMLID_00000040560689425774380100000016931148225537859511_);}
	.st8{fill:url(#XMLID_00000157996958819434306750000007110744315322792579_);}
	.st9{fill:url(#XMLID_00000084489974359401540540000002010164829678601400_);}
	.st10{fill:url(#XMLID_00000079478890933834502740000010267894529166681478_);}
	.st11{fill:url(#XMLID_00000018206562131968710260000001325729665500806825_);}
	.st12{fill:url(#XMLID_00000085247701217144780080000009197718679221450667_);}
	.st13{fill:url(#XMLID_00000118394308806387970980000008399997876813181069_);}
	.st14{fill:url(#XMLID_00000108274255887313510240000015520364551179175602_);}
	.st15{fill:#050505;}
</style>
<g>
	<path id="XMLID_1320_" class="st0" d="M370.1,188.4L187.9,6.3h-0.1L7.6,189.1v0.1c-0.1,0.1,112.6,113.4,112,113.4H28.8
		c-3.7,0-6.7,3-6.7,6.7v57c0,4.3,3.4,7.6,7.6,7.6H347c3.6,0,6.6-3,6.6-6.6v-58.6c0-3.4-2.7-6.1-6.1-6.1c-0.1-0.1-90.2,0.2-90.2-0.1
		C257.4,302.3,370.3,188.5,370.1,188.4z"/>
	<g id="XMLID_42_">
		<g id="XMLID_1306_">
			<polygon id="XMLID_1319_" class="st1" points="195.3,287.8 185,299.3 194,299.3 204.8,287.8 			"/>
			<polygon id="XMLID_1318_" class="st1" points="216.9,287.8 206.6,299.3 215.6,299.3 226.3,287.8 			"/>
			<polygon id="XMLID_1317_" class="st1" points="173.8,287.8 163.4,299.3 172.6,299.3 183.3,287.8 			"/>
			<polygon id="XMLID_1316_" class="st1" points="152.3,287.8 141.9,299.3 151,299.3 161.8,287.8 			"/>
			<path id="XMLID_1313_" class="st1" d="M288.6,232.1c7.9,0,13.2-1.7,16.4-3.1l-1.5-6.6c-11,5-31,4.3-30.6-14.8h34.6
				c1.3-11-2.1-27.5-20-27.9C257.3,178.9,256.1,234.5,288.6,232.1z M286.6,186.4c10.1,0,12.5,9,12.4,14.9h-26
				C273.7,194.8,277.6,186.4,286.6,186.4z"/>
			
				<linearGradient id="XMLID_00000120543856004195528890000016928434563194273429_" gradientUnits="userSpaceOnUse" x1="1051.3514" y1="398.085" x2="1051.3514" y2="275.9089" gradientTransform="matrix(2.6667 0 0 -2.6667 -2575.7388 1085.7089)">
				<stop  offset="0" style="stop-color:#2BACE2"/>
				<stop  offset="0.4095" style="stop-color:#1284C7"/>
				<stop  offset="0.8157" style="stop-color:#0F60AD"/>
				<stop  offset="1" style="stop-color:#07519F"/>
			</linearGradient>
			<path id="XMLID_1310_" style="fill:url(#XMLID_00000120543856004195528890000016928434563194273429_);" d="M152.3,287.8h9.4
				L151,299.3h12.4l10.3-11.5h9.4l-10.7,11.5h12.4l10.3-11.5h9.4l-10.7,11.5h12.4l10.3-11.5h9.4l-10.7,11.5H246l75.7-75.7
				c-1.7-5.3-0.6-29.8-0.9-35.8h-7.6v-7h7.6v-12l8.8-2.3V181h12.8v7h-12.8c0,1.7,0,26.1,0,28l26.7-26.7L189,21.6l-57.9,57.9
				c27.8-1,51.3,20.1,50.5,61.1L207,85.8h32.5l-58.2,117.3c-2.5,6.3-2.7,56,29.7,28.7c0,0,0.1-0.3,0.4-0.5
				c-0.1-9.7,0.3-41.1-0.4-50.1h7.9l0.5,8.3h0.3c8-14,33.7-14.5,33.7,11.9v30h-8.9c-1.8-10.7,6.5-44.2-11.4-43.8
				c-7.6,0.1-12.7,6.6-12.6,13.6v28.9c0,0.3,0,1,0,1.3l0,0c-7.6,20.5-60.8,68.1-55.1-9.4c-12.5,22-40.2,40.8-65.9,45.2l26.3,26.3
				l4.9-5.6h9.4l-9.7,10.3l1.2,1.2h10.2L152.3,287.8z M287.4,179.8c17.9,0.4,21.2,17,20,27.9h-34.6c-0.3,19,19.6,19.8,30.6,14.8
				l1.5,6.6C259.1,248.3,249.8,182.8,287.4,179.8z"/>
			
				<linearGradient id="XMLID_00000041986208542189061110000003608242185020018856_" gradientUnits="userSpaceOnUse" x1="980.1586" y1="398.0853" x2="980.1586" y2="275.9073" gradientTransform="matrix(2.6667 0 0 -2.6667 -2575.7388 1085.7089)">
				<stop  offset="0" style="stop-color:#2BACE2"/>
				<stop  offset="0.4095" style="stop-color:#1284C7"/>
				<stop  offset="0.8157" style="stop-color:#0F60AD"/>
				<stop  offset="1" style="stop-color:#07519F"/>
			</linearGradient>
			<path id="XMLID_1309_" style="fill:url(#XMLID_00000041986208542189061110000003608242185020018856_);" d="M54.6,156.1l-33.1,33
				l23.8,23.8C45.3,197.7,48.1,178.9,54.6,156.1z"/>
			
				<linearGradient id="XMLID_00000178890860800384408580000002382459516311150723_" gradientUnits="userSpaceOnUse" x1="1012.2746" y1="398.0846" x2="1012.2746" y2="275.9087" gradientTransform="matrix(2.6667 0 0 -2.6667 -2575.7388 1085.7089)">
				<stop  offset="0" style="stop-color:#2BACE2"/>
				<stop  offset="0.4095" style="stop-color:#1284C7"/>
				<stop  offset="0.8157" style="stop-color:#0F60AD"/>
				<stop  offset="1" style="stop-color:#07519F"/>
			</linearGradient>
			<path id="XMLID_1308_" style="fill:url(#XMLID_00000178890860800384408580000002382459516311150723_);" d="M125.6,238.6
				c40-32.7,39.9-66,45.1-78.1c4.8-64.8-45.5-106.3-81.9-4.3C50.6,278.4,111.3,251.3,125.6,238.6z"/>
			<path id="XMLID_1307_" class="st5" d="M286.6,186.4c-9,0-13,8.5-13.7,14.9H299C299.2,195.3,296.7,186.4,286.6,186.4z"/>
		</g>
		<g id="XMLID_43_">
			<path id="XMLID_1303_" class="st6" d="M50.7,331.1H56v25.3h-5.3v-5c-6.8,11.3-22.4,4.1-21.7-7.8c-0.7-11.8,15.8-18.8,21.8-7.3
				L50.7,331.1L50.7,331.1z M51.3,343.7c0.2-10.9-16.9-10.9-16.8-0.1C34.2,354.7,51.6,354.8,51.3,343.7z"/>
			<path id="XMLID_1302_" class="st6" d="M64.6,316.6h5.3v39.8h-5.3V316.6z"/>
			<path id="XMLID_1299_" class="st6" d="M83.8,331.1v5c6.6-11.2,22.3-4.4,21.7,7.4c0.7,11.8-15.3,18.8-21.7,7.7v16.9h-5.3v-37H83.8
				z M99.9,343.6c0-10.8-16.9-10.7-16.9,0C82.9,354.5,100.1,354.7,99.9,343.6z"/>
			<path id="XMLID_1298_" class="st6" d="M111.1,316.6h5.3v18.6c4.6-7.5,16.6-5.9,16.6,3.5v17.6h-5.3c-0.4-3,1.1-17.6-1.2-19.9
				c-3.9-4-10.6,1.1-10.2,6.1v13.9H111L111.1,316.6L111.1,316.6z"/>
			<path id="XMLID_1295_" class="st6" d="M161.1,331.1h5.3v25.3h-5.3v-5c-6.8,11.3-22.4,4.1-21.7-7.8c-0.7-11.8,15.8-18.8,21.8-7.3
				v-5.2H161.1z M161.8,343.7c0.2-10.9-16.9-10.9-16.8-0.1C144.7,354.7,162,354.8,161.8,343.7z"/>
			<path id="XMLID_1294_" class="st6" d="M173.5,352.8c-0.2-5.4,8.6-5.5,8.4,0C182.1,358.3,173.4,358.2,173.5,352.8z"/>
			<path id="XMLID_1293_" class="st6" d="M187.2,356.2v-25.3h5.2v4.1c4.6-7.3,16-6,16.5,2.8v18.3h-5.3c-0.5-2.7,1.3-18.3-1.3-20.1
				c-4.3-3.8-10.3,1.3-9.9,6.3v13.8h-5.2V356.2L187.2,356.2z"/>
			<path id="XMLID_61_" class="st6" d="M240.8,344.7h-21.6c1.1,8.2,11.6,9.9,16.2,3.8l3.9,3c-7.2,10.3-25.7,5.6-24.9-7.8
				C214.6,326,241.6,326.5,240.8,344.7z M219.9,340.5h15.4C232.3,333.5,222.5,333.6,219.9,340.5z"/>
			<path id="XMLID_60_" class="st6" d="M248.7,323.7h5.3v7.4h5.3v4.9H254v20.4h-5.3V336h-4.1v-4.9h4.1V323.7z"/>
			<path id="XMLID_59_" class="st6" d="M263,352.8c-0.2-5.4,8.6-5.5,8.4,0C271.6,358.3,262.9,358.2,263,352.8z"/>
			<path id="XMLID_47_" class="st6" d="M278.5,316.6h5.3v19.5c6.2-11.1,22.5-4.2,21.8,7.5c0.7,12.2-15.7,18.7-21.9,7.3v5.3h-5.3
				L278.5,316.6L278.5,316.6z M299.9,343.6c0.2-10.9-17-10.9-16.8,0C282.9,354.4,300.3,354.6,299.9,343.6z"/>
			<path id="XMLID_44_" class="st6" d="M333.5,316.6h5.3v39.8h-5.2v-5.3c-6.5,11.6-22.5,4.4-21.8-7.7c-0.6-12,15.8-18.5,21.8-7.2
				L333.5,316.6L333.5,316.6L333.5,316.6z M334,343.6c0.2-10.9-17.2-10.9-17,0C316.9,354.6,334.2,354.5,334,343.6z"/>
		</g>
	</g>
</g>
<g id="XMLID_1426_">
	
		<linearGradient id="XMLID_00000069376636723474282190000017141489179335180930_" gradientUnits="userSpaceOnUse" x1="423.6" y1="539.1654" x2="568.75" y2="684.3154" gradientTransform="matrix(1 0 0 1 0 -425.1654)">
		<stop  offset="0" style="stop-color:#00AEEF"/>
		<stop  offset="0.4095" style="stop-color:#0084CB"/>
		<stop  offset="0.8157" style="stop-color:#005EAD"/>
		<stop  offset="1" style="stop-color:#014EA2"/>
	</linearGradient>
	<path id="XMLID_1442_" style="fill:url(#XMLID_00000069376636723474282190000017141489179335180930_);" d="M576.4,228.8
		C564,216.5,507.3,61.1,498.1,42h-2.5c-9.9,20.9-65.3,168.8-77.7,183.3c-4.1,4.7-9.3,7.6-15.6,8.6v5.3h58.4v-5.3
		c-37.2,0.1-19.9-28.9-12.1-49.7h62l9.3,24.1c9,19.8,5.2,26.5-16.1,25.6v5.3h84.9v-5.3C583.4,233.5,579.3,231.8,576.4,228.8z
		 M453.1,173.6l26.9-66.5l26.2,66.5H453.1z"/>
	
		<linearGradient id="XMLID_00000149384043495459249320000008035219890079434393_" gradientUnits="userSpaceOnUse" x1="561.775" y1="506.6902" x2="691.1249" y2="636.0406" gradientTransform="matrix(1 0 0 1 0 -425.1654)">
		<stop  offset="0" style="stop-color:#00AEEF"/>
		<stop  offset="0.4095" style="stop-color:#0084CB"/>
		<stop  offset="0.8157" style="stop-color:#005EAD"/>
		<stop  offset="1" style="stop-color:#014EA2"/>
	</linearGradient>
	<path id="XMLID_1441_" style="fill:url(#XMLID_00000149384043495459249320000008035219890079434393_);" d="M662.8,234.1v5.1h-65.4
		v-5.1c13.7-1.5,14.2-6.5,14.5-22.5c-1.5-11.3,3.5-149.5-3-155.9c-2-2.6-5.8-4.1-11.5-4.5v-5.3h50.8c1.4,10-3.5,180,3,183.6
		C653.1,232.2,657,233.7,662.8,234.1z"/>
	
		<linearGradient id="XMLID_00000157306507914223221860000016946230199708549775_" gradientUnits="userSpaceOnUse" x1="647.4647" y1="554.1007" x2="779.8147" y2="686.4507" gradientTransform="matrix(1 0 0 1 0 -425.1654)">
		<stop  offset="0" style="stop-color:#00AEEF"/>
		<stop  offset="0.4095" style="stop-color:#0084CB"/>
		<stop  offset="0.8157" style="stop-color:#005EAD"/>
		<stop  offset="1" style="stop-color:#014EA2"/>
	</linearGradient>
	<path id="XMLID_1438_" style="fill:url(#XMLID_00000157306507914223221860000016946230199708549775_);" d="M795.8,136.8
		c-11.1-36.5-53.8-49.5-74.5-13.4v-17.5h-50.8v5.3c14.5,1.6,13.8,6.7,14.5,22.5v140.6c-0.2,15.7-0.9,20.6-14.5,22v5.3h69v-5.3
		c-16.2,0.6-18.5-5.5-18.3-21.1v-49.6c13.8,19.7,38.9,23.1,57.3,8.8C804.1,212.8,806,167.4,795.8,136.8z M756.7,220.5
		c-10.1,16.2-25.3,6.2-35.3-9.3v-71.1c5.6-13.9,12.8-20.8,21.5-20.8C771.8,120.1,765.1,204.7,756.7,220.5z"/>
	
		<linearGradient id="XMLID_00000062164519109954665950000016908203124400906129_" gradientUnits="userSpaceOnUse" x1="786.075" y1="507.0904" x2="948.1251" y2="669.1404" gradientTransform="matrix(1 0 0 1 0 -425.1654)">
		<stop  offset="0" style="stop-color:#00AEEF"/>
		<stop  offset="0.4095" style="stop-color:#0084CB"/>
		<stop  offset="0.8157" style="stop-color:#005EAD"/>
		<stop  offset="1" style="stop-color:#014EA2"/>
	</linearGradient>
	<path id="XMLID_1437_" style="fill:url(#XMLID_00000062164519109954665950000016908203124400906129_);" d="M952.9,234.1v5.1h-61.4
		v-5.1c12.4-3,11.4-8.4,12-23.8v-59.4c0-11-0.4-17.9-1.2-20.8c-6.7-18.2-24.6-5.1-30.9,8.7c0.9,12-2.1,80,1.9,89.2
		c1.6,3.2,5,5.2,10.1,6v5.1H822v-5c13.9-2.7,12.5-6.9,13.1-23.8c-1.3-12.2,3-146.5-2.5-154.2c-1.7-2.4-5.2-4.1-10.6-4.8V46h49.4
		v77.1c19.3-26.2,54.6-30.5,65.8,2.8c4.3,14.1,2.1,66.4,2.6,84.4C940.8,226.9,938.6,231.5,952.9,234.1z"/>
	
		<linearGradient id="XMLID_00000028292409165264544400000006868899552065228433_" gradientUnits="userSpaceOnUse" x1="975.0942" y1="553.0975" x2="1079.8375" y2="657.8411" gradientTransform="matrix(1 0 0 1 0 -425.1654)">
		<stop  offset="0" style="stop-color:#00AEEF"/>
		<stop  offset="0.4095" style="stop-color:#0084CB"/>
		<stop  offset="0.8157" style="stop-color:#005EAD"/>
		<stop  offset="1" style="stop-color:#014EA2"/>
	</linearGradient>
	<path id="XMLID_1434_" style="fill:url(#XMLID_00000028292409165264544400000006868899552065228433_);" d="M1084.9,217.5
		c-8.9,12.2-13.7,1.3-12.5-10.9c-0.6-15,1.4-68.2-1.8-79.2c-5.5-15.7-21.1-26.2-40.3-25.6c-17.2,0-37.5,5.9-48,19.3
		c-12.4,13.4-8.8,37.7,11.8,37.7c9.7,0.2,17.2-7.3,17.1-16.8c1.2-5.9-8.1-13.7-8.5-19.2c0.8-7.5,9.8-9.9,17.3-10.1
		c21.1,0.6,15.7,25.1,16.4,42.1c-26.7,13.5-44,24.3-51.9,32.4c-32.8,37.1,6.7,79.8,52,32.1c3.2,31.4,41.1,25.6,52.4,1.4
		L1084.9,217.5z M1036.3,209.1c-27.2,25.6-46.4-17.2,0.1-44.6L1036.3,209.1L1036.3,209.1z"/>
	
		<linearGradient id="XMLID_00000044147728140030553260000014055477451311642790_" gradientUnits="userSpaceOnUse" x1="1160.35" y1="474.0154" x2="1338.4501" y2="652.1154" gradientTransform="matrix(1 0 0 1 0 -425.1654)">
		<stop  offset="0" style="stop-color:#00AEEF"/>
		<stop  offset="0.4095" style="stop-color:#0084CB"/>
		<stop  offset="0.8157" style="stop-color:#005EAD"/>
		<stop  offset="1" style="stop-color:#014EA2"/>
	</linearGradient>
	<path id="XMLID_1433_" style="fill:url(#XMLID_00000044147728140030553260000014055477451311642790_);" d="M1344.8,46v5.3
		c-12.3,2.1-16.6,2.3-21,12.2c-4.4,5.7-1.2,169.2-2.1,180.2h-4.4l-118.7-161v122.8c-0.8,20.4,9.7,29.3,27,28.3v5.3h-62.3v-5.3
		c9.7-0.1,16.4-2.3,20.2-6.5c11.7-9.3,3.3-143.3,5.7-158.1c-7.6-10.5-12.5-18.2-26-17.9V46h62.3l86.6,119.8
		c-1.7-16.1,4.4-94.3-4.5-106.5c-4.1-5.5-11.1-8.2-20.8-8V46H1344.8z"/>
	
		<linearGradient id="XMLID_00000050625262480132483940000002948828156773350062_" gradientUnits="userSpaceOnUse" x1="1369.6387" y1="554.4489" x2="1457.6335" y2="642.4438" gradientTransform="matrix(1 0 0 1 0 -425.1654)">
		<stop  offset="0" style="stop-color:#00AEEF"/>
		<stop  offset="0.4095" style="stop-color:#0084CB"/>
		<stop  offset="0.8157" style="stop-color:#005EAD"/>
		<stop  offset="1" style="stop-color:#014EA2"/>
	</linearGradient>
	<path id="XMLID_1428_" style="fill:url(#XMLID_00000050625262480132483940000002948828156773350062_);" d="M1444.6,216.7
		c-29.8,18.3-48.5-20.1-48.4-48.9h66.5c-1-96.1-103.4-79.9-101.4,7c-3.1,70.7,72.3,98.4,101.4,27.9l-4.4-3.1
		C1453.3,207.8,1448.8,213.6,1444.6,216.7z M1395.5,153.3c0.8-59.2,39.5-55.2,35.2,5h-35.2V153.3z"/>
	
		<linearGradient id="XMLID_00000033331395468485937760000000732928827273953927_" gradientUnits="userSpaceOnUse" x1="1473.0643" y1="530.8011" x2="1571.3812" y2="629.1178" gradientTransform="matrix(1 0 0 1 0 -425.1654)">
		<stop  offset="0" style="stop-color:#00AEEF"/>
		<stop  offset="0.4095" style="stop-color:#0084CB"/>
		<stop  offset="0.8157" style="stop-color:#005EAD"/>
		<stop  offset="1" style="stop-color:#014EA2"/>
	</linearGradient>
	<path id="XMLID_1427_" style="fill:url(#XMLID_00000033331395468485937760000000732928827273953927_);" d="M1525.8,120.1
		c0.5,10.4-1.2,89.2,1,97.1c5.4,13.7,17.3,6.8,23.8-6.6l3.9,3.1c-10,34.1-54.2,37-63.8,4.6c-2.6-11.9-0.8-82.7-1.3-98.2h-15.8v-5
		c21.4-16.6,35.9-34,47.8-57.8h4.3V106h28.8v14.1H1525.8z"/>
</g>
<g>
	<path class="st15" d="M440.3,357l0.1,0.2c0.1,4.7-1.6,8.7-5,11.9c-3.4,3.2-8,4.8-13.6,4.8c-5.7,0-10.4-2-14-6.1
		c-3.6-4.1-5.4-9.2-5.4-15.4v-9c0-6.2,1.8-11.4,5.4-15.4c3.6-4.1,8.3-6.1,14-6.1c5.7,0,10.3,1.5,13.7,4.6c3.4,3,5,7.1,4.9,12.1
		l-0.1,0.2h-6.6c0-3.5-1-6.3-3.1-8.4c-2.1-2.1-5-3.1-8.8-3.1c-3.8,0-6.9,1.5-9.1,4.6c-2.3,3.1-3.4,6.9-3.4,11.5v9.1
		c0,4.6,1.1,8.5,3.4,11.5c2.3,3.1,5.3,4.6,9.1,4.6c3.8,0,6.7-1,8.8-3.1s3.1-4.9,3.1-8.5H440.3z"/>
	<path class="st15" d="M456.1,367.8h24.7v5.3h-31.5v-50.6h6.8V367.8z"/>
	<path class="st15" d="M524.7,352.4c0,6.2-1.9,11.3-5.7,15.4c-3.8,4.1-8.8,6.1-14.9,6.1c-5.9,0-10.7-2-14.4-6.1
		c-3.7-4.1-5.5-9.2-5.5-15.4v-9c0-6.2,1.8-11.3,5.5-15.4c3.7-4.1,8.5-6.1,14.4-6.1c6.1,0,11.1,2,14.9,6.1c3.8,4.1,5.7,9.2,5.7,15.4
		V352.4z M517.9,343.3c0-4.6-1.3-8.4-3.8-11.4c-2.5-3-5.9-4.4-10.1-4.4c-4,0-7.2,1.5-9.5,4.4c-2.4,3-3.6,6.8-3.6,11.4v9.1
		c0,4.7,1.2,8.5,3.6,11.5c2.4,3,5.6,4.4,9.5,4.4c4.2,0,7.6-1.5,10.1-4.4c2.5-3,3.7-6.8,3.7-11.5V343.3z"/>
	<path class="st15" d="M571.9,322.6v33.6c0,5.6-1.8,9.9-5.4,13s-8.3,4.7-14,4.7c-5.5,0-10-1.6-13.5-4.7c-3.5-3.1-5.2-7.5-5.2-13
		v-33.6h6.8v33.6c0,3.9,1.1,6.9,3.3,9.1c2.2,2.2,5.1,3.3,8.6,3.3c3.7,0,6.7-1.1,9-3.3c2.3-2.2,3.5-5.2,3.5-9.1v-33.6H571.9z"/>
	<path class="st15" d="M582.7,373.2v-50.6h15.9c6.6,0,11.9,2,15.9,6.1c4,4.1,6,9.3,6,15.8v6.9c0,6.5-2,11.7-6,15.8
		c-4,4-9.3,6.1-15.9,6.1H582.7z M589.6,328v39.8h9.1c4.7,0,8.4-1.5,11.1-4.6c2.7-3.1,4-7,4-11.8v-7c0-4.8-1.3-8.7-4-11.8
		c-2.7-3.1-6.4-4.6-11.1-4.6H589.6z"/>
	<path class="st15" d="M644.9,359.6c0-2.8,0.8-5.3,2.4-7.4c1.6-2.1,4.1-4.2,7.3-6.4c-1.8-2.3-3.1-4.3-4-6.1
		c-0.9-1.8-1.3-3.6-1.3-5.5c0-3.9,1.1-6.9,3.4-9c2.3-2.1,5.4-3.2,9.3-3.2c3.7,0,6.6,1.1,8.9,3.2c2.3,2.1,3.4,4.6,3.4,7.6
		c0,2.3-0.6,4.2-1.8,5.9c-1.2,1.7-3,3.4-5.4,5.1l-3.8,2.8l11.8,14.2c0.9-1.5,1.7-3.2,2.2-5c0.5-1.8,0.8-3.8,0.8-5.8h6.1
		c0,3.1-0.5,5.9-1.4,8.5c-0.9,2.6-2.2,4.9-3.9,7l6.4,7.7l-0.1,0.2h-8l-3-3.5c-1.9,1.4-3.9,2.4-6.1,3.2c-2.2,0.7-4.6,1.1-7,1.1
		c-5,0-9-1.3-12-4C646.4,367.2,644.9,363.8,644.9,359.6z M661.4,368.6c1.7,0,3.3-0.3,4.9-0.9c1.6-0.6,3.1-1.4,4.6-2.4l-12.5-15.1
		l-1.4,1c-2.1,1.6-3.5,3.1-4.2,4.5c-0.7,1.4-1,2.7-1,3.9c0,2.6,0.8,4.8,2.5,6.5C655.9,367.7,658.2,368.6,661.4,368.6z M656.2,334
		c0,1.2,0.3,2.5,0.9,3.8c0.6,1.3,1.6,2.8,2.8,4.4l4.8-3.3c1.3-0.9,2.2-1.8,2.7-2.9c0.5-1,0.7-2.2,0.7-3.4c0-1.4-0.6-2.7-1.7-3.8
		c-1.1-1.1-2.6-1.6-4.4-1.6c-1.9,0-3.3,0.7-4.3,2C656.7,330.5,656.2,332.1,656.2,334z"/>
	<path class="st15" d="M745.9,328h-16.7v45.2h-6.8V328H706v-5.4h40V328z"/>
	<path class="st15" d="M780.7,349.7H760v18.1h24.3v5.3h-31.2v-50.6h30.8v5.4H760v16.4h20.8V349.7z"/>
	<path class="st15" d="M828.5,357l0.1,0.2c0.1,4.7-1.6,8.7-5,11.9c-3.4,3.2-8,4.8-13.6,4.8c-5.7,0-10.4-2-14-6.1
		c-3.6-4.1-5.4-9.2-5.4-15.4v-9c0-6.2,1.8-11.4,5.4-15.4c3.6-4.1,8.3-6.1,14-6.1c5.7,0,10.3,1.5,13.7,4.6c3.4,3,5,7.1,4.9,12.1
		l-0.1,0.2h-6.6c0-3.5-1-6.3-3.1-8.4c-2.1-2.1-5-3.1-8.8-3.1c-3.8,0-6.9,1.5-9.1,4.6c-2.3,3.1-3.4,6.9-3.4,11.5v9.1
		c0,4.6,1.1,8.5,3.4,11.5c2.3,3.1,5.3,4.6,9.1,4.6c3.8,0,6.7-1,8.8-3.1s3.1-4.9,3.1-8.5H828.5z"/>
	<path class="st15" d="M875.7,373.2h-6.8v-22.3h-24.6v22.3h-6.8v-50.6h6.8v22.9h24.6v-22.9h6.8V373.2z"/>
	<path class="st15" d="M925.7,373.2h-6.8l-24.3-38.6l-0.2,0.1v38.6h-6.8v-50.6h6.8l24.3,38.6l0.2-0.1v-38.5h6.8V373.2z"/>
	<path class="st15" d="M976.2,352.4c0,6.2-1.9,11.3-5.7,15.4c-3.8,4.1-8.8,6.1-14.9,6.1c-5.9,0-10.7-2-14.4-6.1
		c-3.7-4.1-5.5-9.2-5.5-15.4v-9c0-6.2,1.8-11.3,5.5-15.4c3.7-4.1,8.5-6.1,14.4-6.1c6.1,0,11.1,2,14.9,6.1c3.8,4.1,5.7,9.2,5.7,15.4
		V352.4z M969.3,343.3c0-4.6-1.3-8.4-3.8-11.4c-2.5-3-5.9-4.4-10.1-4.4c-4,0-7.2,1.5-9.5,4.4c-2.4,3-3.6,6.8-3.6,11.4v9.1
		c0,4.7,1.2,8.5,3.6,11.5c2.4,3,5.6,4.4,9.5,4.4c4.2,0,7.6-1.5,10.1-4.4c2.5-3,3.7-6.8,3.7-11.5V343.3z"/>
	<path class="st15" d="M992.9,367.8h24.7v5.3h-31.5v-50.6h6.8V367.8z"/>
	<path class="st15" d="M1061.5,352.4c0,6.2-1.9,11.3-5.7,15.4c-3.8,4.1-8.8,6.1-14.9,6.1c-5.9,0-10.7-2-14.4-6.1
		c-3.7-4.1-5.5-9.2-5.5-15.4v-9c0-6.2,1.8-11.3,5.5-15.4c3.7-4.1,8.5-6.1,14.4-6.1c6.1,0,11.1,2,14.9,6.1c3.8,4.1,5.7,9.2,5.7,15.4
		V352.4z M1054.7,343.3c0-4.6-1.3-8.4-3.8-11.4c-2.5-3-5.9-4.4-10.1-4.4c-4,0-7.2,1.5-9.5,4.4c-2.4,3-3.6,6.8-3.6,11.4v9.1
		c0,4.7,1.2,8.5,3.6,11.5c2.4,3,5.6,4.4,9.5,4.4c4.2,0,7.6-1.5,10.1-4.4c2.5-3,3.7-6.8,3.7-11.5V343.3z"/>
	<path class="st15" d="M1107.8,366.4c-1.2,1.9-3.3,3.6-6.3,5.2c-3,1.6-6.8,2.4-11.6,2.4c-5.8,0-10.7-1.9-14.5-5.8
		c-3.8-3.9-5.7-8.9-5.7-15v-10.4c0-6.1,1.8-11.1,5.5-15c3.7-3.9,8.4-5.8,14.2-5.8c5.6,0,10.1,1.5,13.3,4.5c3.3,3,4.9,6.8,4.8,11.4
		l-0.1,0.2h-6.6c0-3.1-1-5.6-3-7.7c-2-2-4.8-3.1-8.5-3.1c-3.9,0-7,1.4-9.3,4.3c-2.4,2.9-3.5,6.6-3.5,11v10.5c0,4.5,1.3,8.2,3.8,11.1
		c2.5,2.9,5.7,4.4,9.6,4.4c3,0,5.4-0.4,7.1-1.2c1.7-0.8,3.1-1.7,3.9-2.8v-11.4h-11.5v-5.3h18.3V366.4z"/>
	<path class="st15" d="M1136.1,348.3l13.2-25.7h7.8l-17.7,32.8v17.8h-6.8v-18.3l-17.5-32.3h7.8L1136.1,348.3z"/>
	<path class="st15" d="M1209.2,360.4c0-2.3-0.8-4.2-2.5-5.8c-1.6-1.6-4.5-2.9-8.7-4c-5.1-1.3-9.2-3.1-12-5.6
		c-2.9-2.5-4.3-5.6-4.3-9.3c0-4,1.6-7.3,4.7-9.9c3.1-2.6,7.1-4,12.1-4c5.3,0,9.6,1.5,12.7,4.5c3.2,3,4.7,6.5,4.6,10.6l-0.1,0.2h-6.5
		c0-2.9-1-5.2-3-7.1c-2-1.9-4.6-2.8-7.7-2.8c-3.2,0-5.6,0.8-7.3,2.3c-1.7,1.6-2.6,3.6-2.6,6c0,2.2,0.9,4,2.8,5.5
		c1.9,1.5,4.9,2.8,9.1,3.9c5.1,1.3,9,3.3,11.6,5.8c2.7,2.6,4,5.7,4,9.5c0,4.1-1.6,7.4-4.8,9.8c-3.2,2.5-7.4,3.7-12.6,3.7
		c-4.9,0-9.2-1.4-12.9-4.1c-3.7-2.7-5.6-6.4-5.4-11l0.1-0.2h6.5c0,3.2,1.2,5.6,3.6,7.3c2.4,1.7,5.1,2.6,8.2,2.6
		c3.2,0,5.8-0.7,7.7-2.2C1208.2,364.9,1209.2,362.9,1209.2,360.4z"/>
	<path class="st15" d="M1264.3,352.4c0,6.2-1.9,11.3-5.7,15.4c-3.8,4.1-8.8,6.1-14.9,6.1c-5.9,0-10.7-2-14.4-6.1
		c-3.7-4.1-5.5-9.2-5.5-15.4v-9c0-6.2,1.8-11.3,5.5-15.4c3.7-4.1,8.5-6.1,14.4-6.1c6.1,0,11.1,2,14.9,6.1c3.8,4.1,5.7,9.2,5.7,15.4
		V352.4z M1257.5,343.3c0-4.6-1.3-8.4-3.8-11.4c-2.5-3-5.9-4.4-10.1-4.4c-4,0-7.2,1.5-9.5,4.4c-2.4,3-3.6,6.8-3.6,11.4v9.1
		c0,4.7,1.2,8.5,3.6,11.5c2.4,3,5.6,4.4,9.5,4.4c4.2,0,7.6-1.5,10.1-4.4c2.5-3,3.7-6.8,3.7-11.5V343.3z"/>
	<path class="st15" d="M1281,367.8h24.7v5.3h-31.5v-50.6h6.8V367.8z"/>
	<path class="st15" d="M1348.7,322.6v33.6c0,5.6-1.8,9.9-5.4,13c-3.6,3.1-8.3,4.7-14,4.7c-5.5,0-10-1.6-13.5-4.7
		c-3.5-3.1-5.2-7.5-5.2-13v-33.6h6.8v33.6c0,3.9,1.1,6.9,3.3,9.1c2.2,2.2,5.1,3.3,8.6,3.3c3.7,0,6.7-1.1,9-3.3
		c2.3-2.2,3.5-5.2,3.5-9.1v-33.6H1348.7z"/>
	<path class="st15" d="M1394.9,328h-16.7v45.2h-6.8V328H1355v-5.4h40V328z"/>
	<path class="st15" d="M1409.7,373.2h-6.9v-50.6h6.9V373.2z"/>
	<path class="st15" d="M1460.9,352.4c0,6.2-1.9,11.3-5.7,15.4c-3.8,4.1-8.8,6.1-14.9,6.1c-5.9,0-10.7-2-14.4-6.1
		c-3.7-4.1-5.5-9.2-5.5-15.4v-9c0-6.2,1.8-11.3,5.5-15.4c3.7-4.1,8.5-6.1,14.4-6.1c6.1,0,11.1,2,14.9,6.1c3.8,4.1,5.7,9.2,5.7,15.4
		V352.4z M1454,343.3c0-4.6-1.3-8.4-3.8-11.4c-2.5-3-5.9-4.4-10.1-4.4c-4,0-7.2,1.5-9.5,4.4c-2.4,3-3.6,6.8-3.6,11.4v9.1
		c0,4.7,1.2,8.5,3.6,11.5c2.4,3,5.6,4.4,9.5,4.4c4.2,0,7.6-1.5,10.1-4.4c2.5-3,3.7-6.8,3.7-11.5V343.3z"/>
	<path class="st15" d="M1509,373.2h-6.8l-24.3-38.6l-0.2,0.1v38.6h-6.8v-50.6h6.8l24.3,38.6l0.2-0.1v-38.5h6.8V373.2z"/>
	<path class="st15" d="M1547.8,360.4c0-2.3-0.8-4.2-2.5-5.8c-1.6-1.6-4.5-2.9-8.7-4c-5.1-1.3-9.2-3.1-12-5.6
		c-2.9-2.5-4.3-5.6-4.3-9.3c0-4,1.6-7.3,4.7-9.9c3.1-2.6,7.1-4,12.1-4c5.3,0,9.6,1.5,12.7,4.5c3.2,3,4.7,6.5,4.6,10.6l-0.1,0.2h-6.5
		c0-2.9-1-5.2-3-7.1c-2-1.9-4.6-2.8-7.7-2.8c-3.2,0-5.6,0.8-7.3,2.3c-1.7,1.6-2.6,3.6-2.6,6c0,2.2,0.9,4,2.8,5.5
		c1.9,1.5,4.9,2.8,9.1,3.9c5.1,1.3,9,3.3,11.6,5.8c2.7,2.6,4,5.7,4,9.5c0,4.1-1.6,7.4-4.8,9.8c-3.2,2.5-7.4,3.7-12.6,3.7
		c-4.9,0-9.2-1.4-12.9-4.1c-3.7-2.7-5.6-6.4-5.4-11l0.1-0.2h6.5c0,3.2,1.2,5.6,3.6,7.3c2.4,1.7,5.1,2.6,8.2,2.6
		c3.2,0,5.8-0.7,7.7-2.2C1546.8,364.9,1547.8,362.9,1547.8,360.4z"/>
</g>
</svg>
